<?xml version="1.0" encoding="UTF-8"?>
<svg id="Capa_2" data-name="Capa 2" xmlns="http://www.w3.org/2000/svg" viewBox="0 0 557.83 721.68">
  <defs>
    <style>
      .cls-1 {
        fill-rule: evenodd;
      }

      .cls-1, .cls-2 {
        fill: #12121b;
      }
    </style>
  </defs>
  <g id="Capa_1-2" data-name="Capa 1">
    <g>
      <path class="cls-1" d="m295.25,694.93s113.34-261.25,114.91-264.85c3.19-7.36,8.04-18.55,18.29-23.21-22.77,0-46.54-.51-69.33-.52-5.66.1-13.25.28-20.07,15.22l-60.12,138.67-60.15-138.67c-6.1-13.41-13.13-15.21-20.07-15.22-22.77.01-46.53.52-69.31.52,10.76,5.25,15.19,15.96,18.31,23.21,1.56,3.6,114.86,264.85,114.86,264.85,3.48,7.14,7.81,19.81,16.37,19.81,8.12.13,13.06-12.73,16.33-19.81Z"/>
      <path class="cls-1" d="m303.48,698.53c-3.42,7.89-8.42,19.09-16.12,23.15,14.04-.96,60.75-10.44,91.13-39.63,24.15-22.5,39.46-54.4,40.13-89.82l6.69-167.68c-4.06-.08-5.72,6.39-14.48,26.65l-107.35,247.34Z"/>
      <path class="cls-1" d="m146.86,451.19c-8.77-20.26-10.41-26.73-14.48-26.65l6.68,167.68c.69,35.41,15.98,67.32,40.14,89.82,30.37,29.2,77.09,38.67,91.13,39.63-7.7-4.06-12.71-15.26-16.11-23.15l-107.36-247.34Z"/>
      <path class="cls-2" d="m278.92,0c76.16,101.44,71.19,220.11,36.82,298.51,26.95-47.55,72.12-66.82,113.46-66.93,64.88,0,128.63,52.04,128.63,128.93,0,56.45-37.84,107.5-91.11,123.47-2.23.67-12.72,4.05-19.1,4.05-2.69,0-4.64-.59-4.96-2.25-.88-4.36,5.23-2.65,20.3-13.54,19.04-14.13,30.84-36.73,30.84-61.07,0-34.99-26.42-75.97-78.4-75.97-57.77,0-75.26,63.49-79.8,71.59l-56.67,130.71-56.73-130.71c-4.91-8.65-21.93-71.7-82.19-71.7-44.99,0-75.96,37.78-75.96,76.08,0,24.34,11.79,46.94,30.83,61.07,13.08,9.9,21.33,9.27,20.33,13.54-.38,1.64-2.36,2.24-5.05,2.24-6.41,0-16.83-3.37-19.04-4.04C37.86,468.01,0,416.97,0,360.52c0-77.6,63.14-128.92,128.81-128.92,42.2,0,86.14,19.49,113.25,66.91C207.87,220.35,202.79,101.3,278.92,0"/>
    </g>
  </g>
</svg>